<svg width="640" height="176" viewBox="0 0 640 176" fill="none" xmlns="http://www.w3.org/2000/svg">
<path d="M0 12C0 5.37258 5.37258 0 12 0H628C634.627 0 640 5.37258 640 12V164C640 170.627 634.627 176 628 176H12C5.37259 176 0 170.627 0 164V12Z" fill="url(#paint0_linear_1_363)"/>
<path d="M159.15 63.5H124.85C120.791 63.5 117.5 66.7907 117.5 70.85V105.15C117.5 109.209 120.791 112.5 124.85 112.5H159.15C163.209 112.5 166.5 109.209 166.5 105.15V70.85C166.5 66.7907 163.209 63.5 159.15 63.5Z" fill="#3178C6"/>
<path d="M139.799 91.6797C139.799 91.1274 140.247 90.6797 140.799 90.6797H144.924C145.476 90.6797 145.924 90.232 145.924 89.6797V87.7559C145.924 87.2036 145.476 86.7559 144.924 86.7559H129.793C129.241 86.7559 128.793 87.2036 128.793 87.7559V89.6797C128.793 90.232 129.241 90.6797 129.793 90.6797H133.918C134.47 90.6797 134.918 91.1274 134.918 91.6797V107.193C134.918 107.746 135.366 108.193 135.918 108.193H138.799C139.351 108.193 139.799 107.746 139.799 107.193V91.6797ZM147.838 106.628C147.838 107.002 148.044 107.349 148.389 107.493C149.047 107.767 149.798 107.98 150.613 108.136C151.666 108.337 152.814 108.433 153.963 108.433C155.111 108.433 156.164 108.327 157.217 108.107C158.27 107.887 159.131 107.523 159.896 107.054C160.672 106.547 161.332 105.906 161.715 105.045C162.098 104.183 162.394 103.226 162.394 101.982C162.394 101.111 162.26 100.355 162.002 99.6854C161.744 99.0154 161.37 98.4412 160.854 97.9627C160.365 97.4555 159.801 97.0057 159.131 96.6229C158.461 96.24 157.695 95.8381 156.834 95.4744C156.202 95.216 155.686 94.9672 155.111 94.7184C154.614 94.4695 154.183 94.2207 153.867 93.9719C153.513 93.7135 153.245 93.4455 153.054 93.168C152.862 92.8809 152.767 92.565 152.767 92.2109C152.767 91.8856 152.852 91.5889 153.025 91.3209C153.198 91.0529 153.437 90.8328 153.743 90.6414C154.049 90.45 154.432 90.3064 154.891 90.2012C155.341 90.0959 155.839 90.0481 156.422 90.0481C156.824 90.0481 157.246 90.0777 157.667 90.138C158.107 90.1983 158.557 90.2911 159.006 90.4156C159.456 90.54 159.896 90.6931 160.346 90.8845C160.846 91.1115 161.495 90.7662 161.495 90.2176V87.7356C161.495 87.3208 161.24 86.9451 160.844 86.8226C160.297 86.6537 159.714 86.5199 159.102 86.4247C158.241 86.2907 157.284 86.2238 156.135 86.2238C154.987 86.2238 153.934 86.3482 152.881 86.5874C151.829 86.8267 150.967 87.2095 150.202 87.7359C149.427 88.2527 148.862 88.8843 148.383 89.7456C147.934 90.5495 147.713 91.4683 147.713 92.6167C147.713 94.0523 148.125 95.2964 148.958 96.2534C149.781 97.3062 151.063 98.0718 152.69 98.8374C153.35 99.1054 153.934 99.3734 154.508 99.6318C155.083 99.8902 155.561 100.158 155.944 100.436C156.355 100.713 156.681 101.019 156.901 101.345C157.14 101.67 157.265 102.053 157.265 102.493C157.265 102.8 157.19 103.087 157.045 103.355C156.899 103.623 156.671 103.852 156.365 104.044C156.059 104.235 155.686 104.388 155.217 104.503C154.767 104.608 154.26 104.666 153.59 104.666C152.537 104.666 151.484 104.484 150.527 104.12C150.226 104.016 149.933 103.897 149.652 103.767C148.882 103.411 147.838 103.934 147.838 104.783V106.628Z" fill="white"/>
<path d="M218.25 88.1455C218.25 91.1942 217.664 93.7784 216.491 95.898C215.319 98.0177 213.731 99.6278 211.729 100.728C209.736 101.829 207.499 102.379 205.018 102.379C202.529 102.379 200.287 101.824 198.294 100.715C196.3 99.6052 194.717 97.9952 193.545 95.8845C192.381 93.7648 191.799 91.1852 191.799 88.1455C191.799 85.0967 192.381 82.5125 193.545 80.3929C194.717 78.2732 196.3 76.6631 198.294 75.5627C200.287 74.4623 202.529 73.9121 205.018 73.9121C207.499 73.9121 209.736 74.4623 211.729 75.5627C213.731 76.6631 215.319 78.2732 216.491 80.3929C217.664 82.5125 218.25 85.0967 218.25 88.1455ZM211.404 88.1455C211.404 86.3415 211.147 84.8171 210.633 83.5724C210.128 82.3276 209.397 81.385 208.441 80.7446C207.494 80.1042 206.353 79.784 205.018 79.784C203.692 79.784 202.551 80.1042 201.595 80.7446C200.639 81.385 199.904 82.3276 199.39 83.5724C198.885 84.8171 198.632 86.3415 198.632 88.1455C198.632 89.9494 198.885 91.4738 199.39 92.7185C199.904 93.9633 200.639 94.9059 201.595 95.5463C202.551 96.1867 203.692 96.5069 205.018 96.5069C206.353 96.5069 207.494 96.1867 208.441 95.5463C209.397 94.9059 210.128 93.9633 210.633 92.7185C211.147 91.4738 211.404 89.9494 211.404 88.1455ZM222.16 109.793V81.2182H228.709V84.7765H228.912C229.182 84.1451 229.566 83.5363 230.062 82.95C230.567 82.3637 231.207 81.8857 231.983 81.5158C232.768 81.137 233.706 80.9476 234.797 80.9476C236.24 80.9476 237.589 81.3264 238.843 82.0841C240.105 82.8418 241.125 84.0098 241.9 85.5883C242.676 87.1668 243.064 89.1782 243.064 91.6226C243.064 93.9768 242.69 95.9477 241.941 97.5352C241.201 99.1227 240.2 100.313 238.937 101.107C237.684 101.901 236.29 102.298 234.757 102.298C233.71 102.298 232.804 102.126 232.037 101.784C231.27 101.441 230.626 100.99 230.102 100.431C229.588 99.8713 229.191 99.2715 228.912 98.6311H228.776V109.793H222.16ZM228.641 91.6091C228.641 92.7276 228.79 93.7017 229.088 94.5315C229.394 95.3614 229.832 96.0063 230.4 96.4663C230.977 96.9173 231.667 97.1428 232.47 97.1428C233.282 97.1428 233.972 96.9173 234.54 96.4663C235.108 96.0063 235.537 95.3614 235.826 94.5315C236.123 93.7017 236.272 92.7276 236.272 91.6091C236.272 90.4906 236.123 89.521 235.826 88.7002C235.537 87.8794 235.108 87.2435 234.54 86.7925C233.981 86.3415 233.291 86.116 232.47 86.116C231.658 86.116 230.968 86.337 230.4 86.7789C229.832 87.2209 229.394 87.8523 229.088 88.6731C228.79 89.4939 228.641 90.4726 228.641 91.6091ZM256.245 102.392C254.072 102.392 252.195 101.964 250.617 101.107C249.048 100.241 247.839 99.0099 246.991 97.4134C246.152 95.8078 245.733 93.9001 245.733 91.6903C245.733 89.5435 246.157 87.6674 247.005 86.0619C247.852 84.4473 249.048 83.1935 250.59 82.3006C252.132 81.3986 253.95 80.9476 256.042 80.9476C257.522 80.9476 258.875 81.1776 260.101 81.6376C261.328 82.0976 262.388 82.7786 263.281 83.6806C264.174 84.5826 264.868 85.6966 265.365 87.0225C265.861 88.3394 266.109 89.8502 266.109 91.555V93.2056H248.046V89.3631H259.953C259.944 88.6596 259.777 88.0327 259.452 87.4825C259.127 86.9323 258.681 86.5038 258.113 86.1972C257.553 85.8815 256.908 85.7236 256.178 85.7236C255.438 85.7236 254.775 85.8905 254.189 86.2242C253.603 86.5489 253.138 86.9954 252.795 87.5637C252.453 88.1229 252.272 88.7588 252.254 89.4714V93.3815C252.254 94.2294 252.421 94.9735 252.755 95.6139C253.088 96.2453 253.562 96.7369 254.175 97.0887C254.789 97.4404 255.519 97.6163 256.367 97.6163C256.953 97.6163 257.486 97.5352 257.964 97.3728C258.442 97.2104 258.852 96.9714 259.195 96.6557C259.538 96.34 259.795 95.9522 259.966 95.4922L266.041 95.668C265.788 97.03 265.234 98.2162 264.377 99.2264C263.529 100.228 262.415 101.008 261.035 101.567C259.655 102.117 258.058 102.392 256.245 102.392ZM276.104 90.1479V102H269.488V81.2182H275.779V85.0336H276.009C276.469 83.7618 277.254 82.7651 278.363 82.0435C279.473 81.3129 280.794 80.9476 282.328 80.9476C283.789 80.9476 285.056 81.2768 286.129 81.9353C287.212 82.5847 288.051 83.4957 288.646 84.6683C289.25 85.8319 289.548 87.1939 289.539 88.7543V102H282.923V90.0532C282.932 88.8986 282.639 87.9966 282.043 87.3472C281.457 86.6978 280.641 86.373 279.595 86.373C278.9 86.373 278.287 86.5264 277.754 86.8331C277.231 87.1307 276.825 87.5592 276.537 88.1184C276.257 88.6776 276.113 89.3541 276.104 90.1479ZM311.508 110.226C309.533 110.226 307.841 109.951 306.434 109.401C305.027 108.851 303.922 108.097 303.12 107.141C302.317 106.185 301.834 105.103 301.672 103.894L307.936 103.542C308.053 103.966 308.27 104.336 308.586 104.652C308.91 104.968 309.33 105.211 309.844 105.382C310.367 105.554 310.98 105.64 311.684 105.64C312.793 105.64 313.709 105.369 314.43 104.828C315.161 104.296 315.526 103.362 315.526 102.027V98.374H315.296C315.035 99.0144 314.638 99.5872 314.106 100.092C313.574 100.597 312.911 100.994 312.117 101.283C311.332 101.572 310.43 101.716 309.411 101.716C307.896 101.716 306.506 101.364 305.244 100.661C303.99 99.948 302.984 98.8475 302.227 97.3593C301.478 95.862 301.104 93.9362 301.104 91.582C301.104 89.1557 301.491 87.1578 302.267 85.5883C303.043 84.0098 304.058 82.8418 305.311 82.0841C306.574 81.3264 307.932 80.9476 309.384 80.9476C310.475 80.9476 311.409 81.137 312.184 81.5158C312.969 81.8857 313.614 82.3637 314.119 82.95C314.624 83.5363 315.008 84.1451 315.269 84.7765H315.459V81.2182H322.048V102.081C322.048 103.84 321.606 105.324 320.722 106.532C319.838 107.741 318.602 108.657 317.015 109.279C315.427 109.91 313.592 110.226 311.508 110.226ZM311.711 96.8993C312.514 96.8993 313.199 96.6873 313.767 96.2634C314.336 95.8394 314.773 95.2306 315.08 94.4368C315.387 93.6431 315.54 92.6915 315.54 91.582C315.54 90.4545 315.387 89.4849 315.08 88.6731C314.782 87.8523 314.345 87.2209 313.767 86.7789C313.199 86.337 312.514 86.116 311.711 86.116C310.89 86.116 310.196 86.3415 309.627 86.7925C309.059 87.2435 308.626 87.8794 308.328 88.7002C308.04 89.512 307.896 90.4726 307.896 91.582C307.896 92.6915 308.044 93.6431 308.342 94.4368C308.64 95.2306 309.068 95.8394 309.627 96.2634C310.196 96.6873 310.89 96.8993 311.711 96.8993ZM326.266 102V81.2182H332.692V85.0065H332.909C333.288 83.6355 333.906 82.6163 334.762 81.9488C335.619 81.2723 336.616 80.9341 337.752 80.9341C338.059 80.9341 338.375 80.9566 338.7 81.0017C339.024 81.0378 339.326 81.0964 339.606 81.1776V86.9278C339.29 86.8195 338.875 86.7338 338.361 86.6707C337.856 86.6076 337.405 86.576 337.008 86.576C336.224 86.576 335.516 86.7519 334.884 87.1037C334.262 87.4464 333.77 87.929 333.409 88.5513C333.058 89.1647 332.882 89.8863 332.882 90.7161V102H326.266ZM347.379 102.352C346.053 102.352 344.876 102.131 343.848 101.689C342.828 101.238 342.021 100.561 341.426 99.6593C340.84 98.7483 340.546 97.6073 340.546 96.2363C340.546 95.0817 340.749 94.1076 341.155 93.3138C341.561 92.5201 342.12 91.8752 342.833 91.3791C343.546 90.883 344.366 90.5087 345.295 90.2561C346.224 89.9945 347.217 89.8186 348.272 89.7284C349.454 89.6202 350.405 89.5075 351.127 89.3902C351.848 89.2639 352.371 89.088 352.696 88.8625C353.03 88.628 353.197 88.2988 353.197 87.8749V87.8072C353.197 87.1127 352.958 86.576 352.48 86.1972C352.002 85.8183 351.357 85.6289 350.545 85.6289C349.67 85.6289 348.966 85.8183 348.434 86.1972C347.902 86.576 347.564 87.0991 347.42 87.7666L341.318 87.5501C341.498 86.2874 341.963 85.1599 342.711 84.1677C343.469 83.1665 344.506 82.3817 345.823 81.8135C347.149 81.2362 348.741 80.9476 350.599 80.9476C351.925 80.9476 353.147 81.1054 354.266 81.4211C355.384 81.7278 356.358 82.1788 357.188 82.7741C358.018 83.3604 358.658 84.082 359.109 84.9389C359.569 85.7958 359.799 86.7744 359.799 87.8749V102H353.576V99.1046H353.413C353.043 99.8082 352.57 100.403 351.993 100.891C351.424 101.378 350.752 101.743 349.977 101.986C349.21 102.23 348.344 102.352 347.379 102.352ZM349.422 98.0222C350.135 98.0222 350.775 97.8779 351.343 97.5893C351.92 97.3006 352.38 96.9038 352.723 96.3987C353.066 95.8845 353.237 95.2892 353.237 94.6127V92.6374C353.048 92.7366 352.818 92.8268 352.547 92.908C352.286 92.9891 351.997 93.0658 351.681 93.138C351.366 93.2101 351.041 93.2733 350.707 93.3274C350.374 93.3815 350.053 93.4311 349.747 93.4762C349.124 93.5754 348.592 93.7288 348.15 93.9362C347.717 94.1437 347.383 94.4143 347.149 94.748C346.923 95.0727 346.811 95.4606 346.811 95.9116C346.811 96.5971 347.054 97.1202 347.541 97.481C348.037 97.8418 348.664 98.0222 349.422 98.0222ZM363.845 109.793V81.2182H370.393V84.7765H370.596C370.867 84.1451 371.25 83.5363 371.746 82.95C372.251 82.3637 372.892 81.8857 373.667 81.5158C374.452 81.137 375.39 80.9476 376.482 80.9476C377.925 80.9476 379.273 81.3264 380.527 82.0841C381.79 82.8418 382.809 84.0098 383.585 85.5883C384.361 87.1668 384.748 89.1782 384.748 91.6226C384.748 93.9768 384.374 95.9477 383.625 97.5352C382.886 99.1227 381.885 100.313 380.622 101.107C379.368 101.901 377.974 102.298 376.441 102.298C375.395 102.298 374.488 102.126 373.722 101.784C372.955 101.441 372.31 100.99 371.787 100.431C371.273 99.8713 370.876 99.2715 370.596 98.6311H370.461V109.793H363.845ZM370.326 91.6091C370.326 92.7276 370.474 93.7017 370.772 94.5315C371.079 95.3614 371.516 96.0063 372.084 96.4663C372.662 96.9173 373.352 97.1428 374.155 97.1428C374.966 97.1428 375.656 96.9173 376.225 96.4663C376.793 96.0063 377.221 95.3614 377.51 94.5315C377.808 93.7017 377.956 92.7276 377.956 91.6091C377.956 90.4906 377.808 89.521 377.51 88.7002C377.221 87.8794 376.793 87.2435 376.225 86.7925C375.665 86.3415 374.975 86.116 374.155 86.116C373.343 86.116 372.653 86.337 372.084 86.7789C371.516 87.2209 371.079 87.8523 370.772 88.6731C370.474 89.4939 370.326 90.4726 370.326 91.6091ZM394.831 90.1479V102H388.215V74.2909H394.615V85.0336H394.845C395.314 83.7528 396.081 82.7516 397.145 82.03C398.218 81.3084 399.531 80.9476 401.082 80.9476C402.543 80.9476 403.815 81.2723 404.898 81.9217C405.98 82.5621 406.819 83.4686 407.414 84.6412C408.019 85.8138 408.316 87.1848 408.307 88.7543V102H401.691V90.0532C401.7 88.8986 401.411 87.9966 400.825 87.3472C400.239 86.6978 399.414 86.373 398.349 86.373C397.655 86.373 397.041 86.5264 396.509 86.8331C395.986 87.1307 395.576 87.5592 395.278 88.1184C394.989 88.6776 394.84 89.3541 394.831 90.1479ZM432.353 81.2182V86.0889H419.243V81.2182H432.353ZM421.989 76.2392H428.605V95.4651C428.605 95.871 428.668 96.2002 428.795 96.4528C428.93 96.6963 429.124 96.8722 429.376 96.9804C429.629 97.0797 429.931 97.1293 430.283 97.1293C430.536 97.1293 430.802 97.1067 431.081 97.0616C431.37 97.0075 431.586 96.9624 431.731 96.9263L432.732 101.702C432.416 101.793 431.97 101.905 431.392 102.041C430.824 102.176 430.143 102.262 429.349 102.298C427.798 102.37 426.468 102.189 425.358 101.756C424.258 101.314 423.414 100.629 422.828 99.6999C422.251 98.7709 421.971 97.6028 421.989 96.1957V76.2392ZM439.774 109.793C438.98 109.793 438.232 109.73 437.528 109.604C436.825 109.487 436.22 109.329 435.715 109.13L437.176 104.327C437.826 104.544 438.412 104.67 438.935 104.706C439.468 104.742 439.923 104.656 440.302 104.449C440.69 104.25 440.987 103.894 441.195 103.38L441.452 102.758L434.065 81.2182H440.992L444.821 96.0469H445.037L448.92 81.2182H455.888L448.054 103.989C447.676 105.125 447.139 106.127 446.444 106.993C445.759 107.867 444.87 108.553 443.779 109.049C442.697 109.545 441.362 109.793 439.774 109.793ZM458.425 109.793V81.2182H464.973V84.7765H465.176C465.447 84.1451 465.83 83.5363 466.326 82.95C466.832 82.3637 467.472 81.8857 468.248 81.5158C469.032 81.137 469.97 80.9476 471.062 80.9476C472.505 80.9476 473.854 81.3264 475.107 82.0841C476.37 82.8418 477.389 84.0098 478.165 85.5883C478.941 87.1668 479.329 89.1782 479.329 91.6226C479.329 93.9768 478.954 95.9477 478.206 97.5352C477.466 99.1227 476.465 100.313 475.202 101.107C473.948 101.901 472.555 102.298 471.021 102.298C469.975 102.298 469.069 102.126 468.302 101.784C467.535 101.441 466.89 100.99 466.367 100.431C465.853 99.8713 465.456 99.2715 465.176 98.6311H465.041V109.793H458.425ZM464.906 91.6091C464.906 92.7276 465.055 93.7017 465.352 94.5315C465.659 95.3614 466.096 96.0063 466.665 96.4663C467.242 96.9173 467.932 97.1428 468.735 97.1428C469.547 97.1428 470.237 96.9173 470.805 96.4663C471.373 96.0063 471.802 95.3614 472.09 94.5315C472.388 93.7017 472.537 92.7276 472.537 91.6091C472.537 90.4906 472.388 89.521 472.09 88.7002C471.802 87.8794 471.373 87.2435 470.805 86.7925C470.246 86.3415 469.556 86.116 468.735 86.116C467.923 86.116 467.233 86.337 466.665 86.7789C466.096 87.2209 465.659 87.8523 465.352 88.6731C465.055 89.4939 464.906 90.4726 464.906 91.6091ZM492.51 102.392C490.336 102.392 488.46 101.964 486.882 101.107C485.312 100.241 484.104 99.0099 483.256 97.4134C482.417 95.8078 481.997 93.9001 481.997 91.6903C481.997 89.5435 482.421 87.6674 483.269 86.0619C484.117 84.4473 485.312 83.1935 486.855 82.3006C488.397 81.3986 490.214 80.9476 492.307 80.9476C493.786 80.9476 495.139 81.1776 496.366 81.6376C497.593 82.0976 498.653 82.7786 499.546 83.6806C500.439 84.5826 501.133 85.6966 501.629 87.0225C502.125 88.3394 502.373 89.8502 502.373 91.555V93.2056H484.311V89.3631H496.217C496.208 88.6596 496.041 88.0327 495.717 87.4825C495.392 86.9323 494.945 86.5038 494.377 86.1972C493.818 85.8815 493.173 85.7236 492.442 85.7236C491.703 85.7236 491.04 85.8905 490.454 86.2242C489.867 86.5489 489.403 86.9954 489.06 87.5637C488.717 88.1229 488.537 88.7588 488.519 89.4714V93.3815C488.519 94.2294 488.686 94.9735 489.019 95.6139C489.353 96.2453 489.827 96.7369 490.44 97.0887C491.053 97.4404 491.784 97.6163 492.632 97.6163C493.218 97.6163 493.75 97.5352 494.228 97.3728C494.706 97.2104 495.117 96.9714 495.46 96.6557C495.802 96.34 496.059 95.9522 496.231 95.4922L502.306 95.668C502.053 97.03 501.498 98.2162 500.641 99.2264C499.794 100.228 498.68 101.008 497.3 101.567C495.92 102.117 494.323 102.392 492.51 102.392ZM523.896 87.5637L517.821 87.726C517.758 87.2931 517.586 86.9097 517.307 86.576C517.027 86.2332 516.662 85.9672 516.211 85.7777C515.769 85.5793 515.255 85.4801 514.669 85.4801C513.902 85.4801 513.248 85.6334 512.707 85.9401C512.175 86.2468 511.913 86.6617 511.922 87.1848C511.913 87.5907 512.075 87.9425 512.409 88.2402C512.752 88.5378 513.361 88.7768 514.236 88.9572L518.24 89.7149C520.315 90.1118 521.857 90.7702 522.868 91.6903C523.887 92.6103 524.401 93.828 524.41 95.3433C524.401 96.7685 523.977 98.0087 523.138 99.064C522.308 100.119 521.172 100.94 519.729 101.526C518.286 102.104 516.635 102.392 514.777 102.392C511.809 102.392 509.469 101.784 507.755 100.566C506.05 99.3391 505.076 97.6975 504.832 95.641L511.367 95.4786C511.512 96.2363 511.886 96.8136 512.49 97.2104C513.095 97.6073 513.866 97.8058 514.804 97.8058C515.652 97.8058 516.342 97.6479 516.874 97.3322C517.406 97.0165 517.677 96.5971 517.686 96.0739C517.677 95.6049 517.469 95.2306 517.063 94.951C516.657 94.6623 516.022 94.4368 515.156 94.2745L511.53 93.5844C509.446 93.2056 507.895 92.5066 506.875 91.4873C505.856 90.4591 505.351 89.1512 505.36 87.5637C505.351 86.1746 505.721 84.9885 506.469 84.0053C507.218 83.0131 508.282 82.2555 509.663 81.7323C511.043 81.2092 512.671 80.9476 514.547 80.9476C517.361 80.9476 519.58 81.5384 521.203 82.72C522.827 83.8926 523.725 85.5071 523.896 87.5637Z" fill="white"/>
<defs>
<linearGradient id="paint0_linear_1_363" x1="0" y1="0" x2="604.091" y2="259.57" gradientUnits="userSpaceOnUse">
<stop stop-color="#171717"/>
<stop offset="1" stop-color="#262626"/>
</linearGradient>
</defs>
</svg>
